<svg width="29" height="32" viewBox="0 0 29 32" fill="none" xmlns="http://www.w3.org/2000/svg">
<path d="M25.7888 21.2682C23.2735 18.7984 18.9838 19.7148 17.6775 22.9646C16.0266 27.0852 20.1732 31.1278 24.2614 29.4055C27.4916 28.0471 28.2845 23.725 25.7888 21.2682ZM22.2141 8.12636C19.8223 7.55442 17.918 6.25452 16.5141 4.25269H9.76117C8.46778 6.32601 6.42048 7.54142 4.08718 8.12636V17.1866C4.25617 19.4614 5.25056 21.5607 6.94691 23.0685L13.1149 27.6571L16.2736 25.3694C16.3776 24.8949 16.3516 24.3684 16.4296 23.8745C16.852 21.2032 19.1983 19.0129 21.9216 18.9349L22.2205 17.1866L22.2076 8.11986L22.2141 8.12636ZM24.4434 6.18955C23.0915 5.78009 21.7136 5.33162 20.5177 4.55819C19.5428 3.93424 18.7499 3.06981 18.0024 2.19239C17.8009 1.95841 17.45 1.32796 17.1835 1.29547L9.03323 1.32795L8.91625 1.39297C7.30439 3.96674 4.78261 5.45511 1.87736 6.18955V17.6155C2.16984 21.2747 3.88569 23.6275 6.68045 25.7853C8.78626 27.4166 11.0156 28.905 13.1279 30.5234L17.0405 27.6896L17.06 27.5921C16.891 27.4232 16.6636 26.3507 16.4621 26.3962C15.9031 26.7082 13.6478 28.7036 13.2189 28.7426C13.0174 28.7621 12.6989 28.5085 12.5234 28.3916C10.6906 27.1827 8.31829 25.4278 6.62844 24.0305C4.59412 22.3406 3.39174 20.0528 3.15127 17.4011L3.19026 7.5414C3.25525 7.43091 3.35924 7.37894 3.46973 7.32044C4.02868 7.04747 4.91908 6.89797 5.56253 6.61849C6.56994 6.18303 7.42787 5.59157 8.1688 4.77915C8.46777 4.45417 9.14371 3.38178 9.46868 3.28429C9.57268 3.25179 9.66369 3.24532 9.77418 3.23232C11.9125 3.03084 14.3498 3.38831 16.5206 3.23232C16.6831 3.23232 16.8391 3.27131 16.9755 3.34931C17.2485 3.50529 17.9895 4.62968 18.3079 4.96115C18.9774 5.65659 19.8483 6.23503 20.7322 6.625C21.3886 6.91097 22.201 7.03448 22.786 7.29446C22.916 7.35295 23.0265 7.43092 23.1045 7.54791L23.1435 17.4855L22.9225 18.9154L24.2159 19.2404L24.4369 17.7L24.4239 6.19605L24.4434 6.18955ZM25.0998 19.6563C26.7312 20.4233 27.9661 22.2886 28.1805 24.0759C28.889 30.0489 21.4016 33.1556 17.6385 28.515L17.541 28.4891L13.5893 31.4268C13.3164 31.5893 13.1604 31.7388 12.8549 31.5113C10.3721 29.4705 7.3564 27.7481 4.94511 25.6553C2.20886 23.283 0.86345 20.0268 0.85695 16.4066C1.07143 13.0594 0.583974 9.38077 0.85695 6.07256C0.889447 5.6696 0.921973 5.5071 1.29244 5.36411C3.81422 4.3697 5.15959 4.36322 7.13541 2.17291C7.43439 1.83494 8.35728 0.46353 8.65626 0.392036L17.463 0.372559L17.8075 0.457054C19.1918 2.27039 20.4332 3.67428 22.5845 4.5712C23.02 4.75318 25.1713 5.37063 25.3078 5.50712C25.4248 5.62411 25.4443 5.83856 25.4573 6.00104C25.3208 9.62772 25.6263 13.3649 25.4573 16.9786C25.4118 17.8755 25.2558 18.7724 25.0998 19.6563Z" fill="#1A3B34"/>
<path d="M11.3151 9.5693C13.1999 9.40682 15.2407 9.77076 15.7932 11.8571C16.0142 12.6955 16.0206 16.0297 15.8972 16.9526C15.5267 19.6889 11.0096 19.8384 10.7496 16.8291C10.6976 16.1792 10.6716 13.7809 10.8406 13.261C11.2436 12.0391 13.0894 11.9286 13.6809 13.04C14.0708 13.7809 13.7134 15.5227 13.8369 16.4002C13.7654 16.7771 13.1739 16.8681 12.9854 16.5367C12.7255 16.0752 13.0374 14.2814 12.8879 13.6184C12.7579 13.0465 11.77 13.0205 11.6855 13.7419C11.6076 14.3984 11.6141 16.0882 11.6855 16.7577C11.887 18.623 14.7857 18.5125 14.9872 16.6861C15.0912 15.7242 15.0782 13.5729 14.9872 12.598C14.8897 11.5256 14.1098 10.6417 13.0179 10.5507C11.1981 10.3947 9.35226 10.5052 9.17678 12.7345C9.13778 13.2155 9.28724 14.5998 9.14425 14.9248C9.00126 15.2433 8.40334 15.2498 8.27985 14.8598C8.18236 14.5478 8.21483 12.858 8.24732 12.455C8.40331 10.7912 9.70322 9.71229 11.3151 9.5693Z" fill="#1A3B34"/>
<path d="M17.5417 9.64078C17.7821 9.61479 18.1266 9.88775 18.0746 10.1542C17.9121 12.7865 18.2826 15.6592 18.0746 18.2655C17.9771 19.5069 17.1192 20.6313 15.9363 21.0018C15.0654 21.2747 12.1536 21.2552 11.1527 21.1642C9.80734 21.0473 8.68294 20.1178 8.35147 18.7984C8.22798 18.3045 7.94851 16.3027 8.96241 16.7577C9.31988 16.9136 9.15088 17.8041 9.18988 18.181C9.28087 19.0455 9.85283 19.8514 10.7043 20.1113C11.4192 20.3323 14.2594 20.3128 15.0914 20.2218C16.2353 20.1048 17.0477 19.2534 17.1452 18.116V10.0113C17.1647 9.85527 17.3986 9.64728 17.5481 9.63428" fill="#1A3B34"/>
<path d="M21.0319 27.4558C20.733 27.2024 19.5241 25.9675 19.3291 25.6815C19.0951 25.337 19.1471 24.8561 19.6151 24.8236C20.083 24.7911 20.9734 26.1624 21.3959 26.3964L24.5221 22.5618C24.8731 21.9768 25.6595 22.3603 25.419 22.9517L21.7989 27.4364C21.5519 27.6898 21.2919 27.6638 21.0384 27.4493" fill="#1A3B34"/>
</svg>
