<svg width="33" height="32" viewBox="0 0 33 32" fill="none" xmlns="http://www.w3.org/2000/svg">
<path d="M29.4515 10.7742V13.225C29.8286 13.225 30.1992 13.264 30.5502 13.2185C31.1678 13.134 31.5903 12.6074 31.5838 11.9964C31.5838 11.3788 31.1222 10.8457 30.4982 10.7807C30.1601 10.7417 29.8156 10.7807 29.4515 10.7807M16.8919 24.283C17.8215 22.1182 18.7511 19.9469 19.7002 17.7366C19.3232 17.7366 19.0112 17.7431 18.6992 17.7366C18.5236 17.7301 18.4456 17.8016 18.3806 17.9576C18.0816 18.6662 17.776 19.3748 17.4705 20.0834C16.9439 21.3056 16.4238 22.5278 15.9038 23.7434C16.2353 23.9255 16.5473 24.101 16.8919 24.2895M16.8139 26.2853C16.8139 25.3686 16.0663 24.6145 15.1561 24.608C14.233 24.6015 13.4594 25.3621 13.4594 26.2918C13.4594 27.2084 14.2071 27.9625 15.1237 27.9755C16.0468 27.982 16.8139 27.2214 16.8139 26.2918M12.4843 26.1227H4.46875V27.2214H12.6533C12.5948 26.8508 12.5428 26.4933 12.4843 26.1227ZM10.105 11.5543V14.5577H28.4764V9.18148C28.4179 9.16848 28.3789 9.15549 28.3399 9.15549C26.9032 9.15549 25.46 9.15545 24.0233 9.16195C23.9258 9.16195 23.7893 9.27247 23.7373 9.36999C23.4513 9.87706 23.1717 10.3906 22.9247 10.9172C22.7102 11.3853 22.3656 11.5608 21.8586 11.5608C18.0816 11.5478 14.3045 11.5543 10.5275 11.5543H10.105ZM0.47721 21.5916C0.646233 21.3641 0.867288 21.2796 1.15333 21.2926C1.7124 21.3121 2.28445 21.2796 2.83703 21.3381C3.72115 21.4291 4.3842 22.1442 4.42971 23.0348C4.46221 23.6069 4.44273 24.179 4.44923 24.7576C4.44923 24.8811 4.44923 25.0046 4.44923 25.1541C4.57925 25.1541 4.67677 25.1736 4.78078 25.1736C7.34862 25.1736 9.91644 25.1736 12.4778 25.1736C12.6923 25.1736 12.8029 25.1086 12.9199 24.9266C13.3229 24.2635 13.921 23.8604 14.6946 23.7044C14.7986 23.6849 14.9287 23.6004 14.9677 23.5094C15.7933 21.6111 16.6123 19.7064 17.4445 17.7561C17.3079 17.7496 17.1975 17.7366 17.087 17.7366C15.6243 17.7366 14.168 17.7366 12.7053 17.7366C11.9187 17.7366 11.5547 17.3791 11.5547 16.5925C11.5547 16.2479 11.5547 15.9034 11.5547 15.5068H10.5275C10.274 15.5068 10.0269 15.5068 9.77991 15.5068C9.29884 15.5068 9.14934 15.3508 9.14934 14.8632C9.14934 13.8816 9.14934 12.9 9.14934 11.9248V11.5673C8.70078 11.5348 8.18077 11.6388 7.98574 11.1642C7.83622 10.7937 7.84918 10.3581 7.78418 9.96159C7.34212 9.93559 6.87406 9.92909 6.4125 9.88358C6.02895 9.85108 5.82738 9.62352 5.87939 9.33098C5.9314 9.03194 6.17195 8.89545 6.5555 8.95396C7.65415 9.12298 8.64227 8.86291 9.54589 8.22583C9.57839 8.19983 9.61742 8.18033 9.65643 8.15433C9.4614 7.89429 9.3509 7.64078 9.59144 7.40025C9.83847 7.14671 10.0984 7.2442 10.3455 7.45222C10.82 6.86065 11.0736 6.20407 11.1841 5.43697C10.9761 5.43697 10.7811 5.43697 10.5861 5.43697C10.274 5.42397 10.0725 5.22895 10.079 4.95591C10.0855 4.69588 10.2805 4.51385 10.5796 4.50085C10.7681 4.49435 10.9501 4.50085 11.1711 4.50085C11.0866 3.74024 10.807 3.09017 10.3455 2.48559C10.0984 2.68062 9.83847 2.79114 9.59144 2.5311C9.36391 2.29057 9.4419 2.03703 9.65643 1.79C9.05835 1.32843 8.41477 1.04888 7.62816 0.964374C7.62816 1.1789 7.63466 1.36094 7.62816 1.54296C7.61516 1.8615 7.43316 2.05651 7.16012 2.05001C6.89358 2.05001 6.71801 1.86152 6.6985 1.55597C6.6855 1.37395 6.6985 1.1854 6.6985 0.964374C5.9249 1.04238 5.28784 1.32192 4.68976 1.77698C4.87828 2.04352 4.99532 2.31006 4.70928 2.55709C4.46225 2.77162 4.22821 2.66763 3.97468 2.4531C3.77965 2.78464 3.59113 3.10318 3.40911 3.42172C3.42861 3.44122 3.44808 3.4607 3.46109 3.48021C3.5976 3.40219 3.73413 3.31769 3.87715 3.24618C4.12418 3.12267 4.3777 3.19417 4.50772 3.4022C4.64423 3.62323 4.58572 3.90276 4.33869 4.05228C3.87062 4.34482 3.38959 4.61789 2.90853 4.89092C2.681 5.02094 2.46 4.9754 2.29098 4.77387C1.93993 4.34481 1.59533 3.91576 1.25728 3.4737C1.08826 3.25267 1.12733 2.99264 1.32235 2.83012C1.52388 2.6611 1.79036 2.68059 1.99188 2.90162C2.1284 3.05764 2.25192 3.22017 2.40144 3.39569C3.41558 1.04888 5.13183 -0.186254 7.71268 0.0152728C9.58493 0.164793 11.4312 1.51045 12.0358 3.85076H23.4123C23.5098 3.85076 23.6008 3.84426 23.6918 3.85076C23.9583 3.87676 24.1079 4.03278 24.1339 4.29281C24.1534 4.53985 23.9648 4.74787 23.6983 4.78038C23.5943 4.79338 23.4903 4.78038 23.3863 4.78038H12.2113C12.1203 5.30695 12.0813 5.82054 11.9447 6.30811C11.5092 7.83581 10.534 8.90842 9.07784 9.526C8.83731 9.63002 8.75933 9.74705 8.78534 9.98758C8.80484 10.1696 8.78534 10.3581 8.78534 10.5856H9.14934C13.3359 10.5856 17.516 10.5856 21.7026 10.5856C21.9301 10.5856 22.0601 10.5271 22.1576 10.3126C22.4046 9.79905 22.6971 9.305 22.9442 8.78493C23.1522 8.34287 23.4708 8.16084 23.9583 8.16084C25.8761 8.17384 27.8003 8.16085 29.7181 8.17385C29.9586 8.17385 30.0821 8.11533 30.1796 7.8748C30.5632 6.93867 30.9793 6.02207 31.3758 5.09245C31.4148 5.00143 31.4473 4.90392 31.4993 4.7674H31.1288C29.3216 4.7674 27.5208 4.7674 25.7135 4.7674C25.6095 4.7674 25.499 4.78039 25.4015 4.75439C25.148 4.69588 24.9985 4.53336 25.018 4.26682C25.0375 4.01329 25.187 3.87025 25.434 3.83774C25.5056 3.82474 25.577 3.83774 25.655 3.83774C27.6248 3.83774 29.6011 3.83774 31.5708 3.83774C32.3704 3.83774 32.715 4.36433 32.3964 5.11193C31.9219 6.22358 31.4278 7.32222 30.9598 8.44037C30.7582 8.92143 30.4527 9.15549 29.9262 9.11648C29.7701 9.10348 29.6205 9.11648 29.445 9.11648V9.79256C29.7636 9.79256 30.0822 9.77956 30.4007 9.79256C31.3043 9.84457 31.9739 10.2736 32.3314 11.1057C32.689 11.9249 32.5525 12.7049 31.9869 13.3875C31.5578 13.9076 30.9728 14.1417 30.3032 14.1547C30.0236 14.1547 29.7441 14.1547 29.4256 14.1547C29.4256 14.4342 29.4321 14.6812 29.4256 14.9282C29.4126 15.3118 29.2436 15.4743 28.86 15.4808C28.2554 15.4808 27.6573 15.4808 27.0137 15.4808C27.0137 15.8904 27.0137 16.2674 27.0137 16.651C27.0137 17.3076 26.6237 17.6976 25.9606 17.7041C25.1285 17.7041 24.2899 17.7041 23.4578 17.7041C23.0027 17.7041 22.7752 17.5481 22.7752 17.2426C22.7752 16.9305 23.0092 16.768 23.4773 16.7615C24.2184 16.7615 24.9595 16.7615 25.7006 16.7615H26.0581V15.5003H12.5168V16.742C12.6468 16.742 12.7768 16.7615 12.9069 16.7615C15.6502 16.7615 18.3936 16.7615 21.137 16.7615C21.2735 16.7615 21.41 16.7615 21.54 16.7875C21.7741 16.8395 21.8975 16.9955 21.891 17.2361C21.8845 17.4766 21.761 17.6261 21.527 17.6781C21.4685 17.6911 21.397 17.7041 21.3385 17.6911C20.8184 17.5676 20.6299 17.8601 20.4478 18.2957C19.5247 20.493 18.5691 22.6838 17.6395 24.8746C17.5745 25.0241 17.568 25.2386 17.62 25.3946C17.971 26.5193 17.581 27.7154 16.6253 28.385C15.6697 29.0546 14.4151 29.0026 13.4789 28.268C13.3814 28.19 13.2384 28.1315 13.1214 28.1315C10.2935 28.125 7.46566 28.1315 4.63778 28.1315C4.58577 28.1315 4.53373 28.138 4.44272 28.151C4.44272 28.424 4.44272 28.6906 4.44272 28.9571C4.44272 29.3536 4.45572 29.7502 4.44272 30.1468C4.41022 31.0374 3.90314 31.681 3.05153 31.941C3.00602 31.954 2.96054 31.9865 2.91503 32.006H0.470703V27.0003C0.626724 26.7858 0.802222 26.6103 1.09476 26.7208C1.3808 26.8248 1.4133 27.0653 1.4133 27.3319C1.4133 28.3655 1.4133 29.3992 1.4133 30.4263V31.0699H2.31693C3.18154 31.0699 3.50664 30.7448 3.50664 29.8867C3.50664 27.7154 3.50664 25.5506 3.50664 23.3793C3.50664 23.2753 3.50663 23.1713 3.50013 23.0673C3.45462 22.6253 3.18156 22.2807 2.74601 22.2352C2.31695 22.1897 1.88137 22.2222 1.4198 22.2222V22.5667C1.4198 23.4314 1.4198 24.296 1.4198 25.1606C1.4198 25.4271 1.38731 25.6677 1.10127 25.7717C0.808729 25.8757 0.633231 25.7002 0.47721 25.4921V21.5461V21.5916Z" fill="#1A3B34"/>
<path d="M0.476562 6.25609C0.561074 6.10007 0.626092 5.93754 0.730106 5.79452C1.09415 5.29395 1.72472 5.14446 2.25779 5.41749C2.81037 5.70353 3.10287 6.39262 2.86884 6.9972C2.73232 7.36125 2.5113 7.69928 2.31628 8.04383C2.20576 8.23886 2.06925 8.42737 1.91323 8.6809C2.15376 8.6809 2.34233 8.6809 2.53086 8.6809C2.8624 8.6809 3.0574 8.84995 3.0704 9.11649C3.0834 9.40253 2.88835 9.60402 2.5503 9.61052C2.08874 9.62352 1.63369 9.63002 1.17863 9.61052C0.619553 9.58452 0.437573 9.20748 0.736613 8.73292C1.07466 8.20635 1.43218 7.6993 1.76372 7.16623C1.87424 6.98421 1.95222 6.76964 1.97822 6.56161C1.99122 6.4641 1.85473 6.27559 1.75721 6.25609C1.6727 6.23659 1.49068 6.36011 1.43868 6.46412C1.17864 6.9972 0.91212 7.05571 0.476562 6.63315V6.25609Z" fill="#1A3B34"/>
<path d="M4.49549 8.51827C4.14445 8.51827 3.84543 8.51827 3.53989 8.51827C3.07832 8.51177 2.86382 8.19323 3.07184 7.79018C3.42289 7.09459 3.78046 6.39899 4.15101 5.7099C4.36554 5.31334 4.63857 5.17682 4.95711 5.26133C5.26265 5.33934 5.42516 5.6124 5.43166 6.04795C5.43166 6.3925 5.43166 6.73706 5.43166 7.08161C5.43166 7.33514 5.39266 7.57565 5.6787 7.75118C5.89973 7.8877 5.85424 8.27777 5.6137 8.42078C5.43818 8.5248 5.39914 8.64831 5.41865 8.82384C5.42515 8.89534 5.41865 8.97333 5.41865 9.04484C5.39914 9.31788 5.21065 9.50642 4.96362 9.50642C4.71658 9.50642 4.51507 9.32439 4.48907 9.05786C4.47606 8.89534 4.48907 8.7263 4.48907 8.51827" fill="#1A3B34"/>
<path d="M26.6696 7.13366C26.3185 7.13366 25.961 7.13366 25.6099 7.13366C25.2979 7.13366 25.0898 6.93865 25.0898 6.66561C25.0898 6.39908 25.2979 6.19753 25.6099 6.19753C26.3185 6.19753 27.0271 6.19103 27.7292 6.19753C28.0413 6.19753 28.2297 6.39909 28.2232 6.67863C28.2167 6.94516 28.0283 7.12065 27.7292 7.12715C27.3782 7.13365 27.0206 7.12715 26.6696 7.12715" fill="#1A3B34"/>
<path d="M23.5172 13.6604C23.1401 13.6604 22.7696 13.6669 22.3925 13.6604C22.074 13.6604 21.8984 13.4914 21.8854 13.2249C21.8724 12.9453 22.048 12.7373 22.3666 12.7308C23.1467 12.7178 23.9268 12.7178 24.7134 12.7308C25.0319 12.7308 25.2205 12.9453 25.2075 13.2184C25.1945 13.4784 25.0124 13.6539 24.7069 13.6604C24.3103 13.6669 23.9137 13.6604 23.5172 13.6604Z" fill="#1A3B34"/>
</svg>
