<svg width="512" height="512" viewBox="0 0 512 512" fill="none" xmlns="http://www.w3.org/2000/svg">
<path fill-rule="evenodd" clip-rule="evenodd" d="M77.889 0C90.2623 0 101.463 5.0135 109.591 13.1202C117.698 21.2273 122.711 32.449 122.711 44.8226C122.711 57.1962 117.697 68.418 109.591 76.5251C107.607 78.5091 105.452 80.3012 103.127 81.8799C113.879 86.0401 123.586 92.7816 131.65 101.464C145.538 116.398 154.562 137.113 155.736 160.176C155.864 162.8 154.349 165.146 152.088 166.171V166.192C127.149 177.542 102.274 183.217 77.4631 183.217C52.6307 183.217 28.0119 177.542 3.60873 166.171C1.09136 164.997 -0.273992 162.352 0.046046 159.728C1.32609 136.858 10.3288 116.334 24.11 101.486C32.1743 92.8035 41.8809 86.0618 52.6332 81.9018C50.3079 80.3231 48.1532 78.531 46.1691 76.5469C38.0622 68.4399 33.0492 57.2181 33.0492 44.8445C33.0492 32.4709 38.0626 21.2704 46.1691 13.1421C54.3186 5.035 65.5156 0 77.889 0ZM65.5369 278.133C65.9209 281.546 63.4676 284.64 60.0542 285.024C56.6195 285.408 53.5475 282.954 53.1636 279.541C52.7156 275.743 52.3956 271.818 52.1609 267.786C51.9263 263.711 51.8196 259.786 51.8196 255.988C51.8196 250.868 52.0116 245.705 52.3956 240.564C52.7796 235.38 53.3556 230.281 54.1237 225.267C54.6357 221.854 57.8144 219.507 61.2278 220.019C64.6413 220.531 66.988 223.71 66.4759 227.123C65.7506 231.881 65.2172 236.681 64.8545 241.502C64.4919 246.217 64.3212 251.06 64.3212 256.009C64.3212 259.913 64.4279 263.625 64.6199 267.125C64.7905 270.73 65.1103 274.399 65.5369 278.133ZM171.843 83.6321C168.75 85.1468 165.037 83.8668 163.523 80.7734C162.008 77.6799 163.288 73.9678 166.382 72.4533C180.142 65.7329 194.734 60.4849 209.945 56.9863C224.772 53.5515 240.196 51.7595 256.004 51.7595C271.812 51.7595 287.215 53.5728 302.063 56.9863C317.275 60.5064 331.866 65.7121 345.627 72.4533C348.72 73.968 350 77.6801 348.486 80.7734C346.971 83.8668 343.259 85.1468 340.166 83.6321C327.323 77.3388 313.627 72.453 299.29 69.1466C285.423 65.9464 270.938 64.2611 256.026 64.2611C241.113 64.2611 226.628 65.9464 212.74 69.1466C198.404 72.4533 184.707 77.3601 171.843 83.6321ZM445.573 227.062C445.061 223.649 447.408 220.47 450.821 219.958C454.235 219.446 457.413 221.793 457.926 225.206C458.694 230.22 459.27 235.34 459.654 240.545C460.038 245.708 460.23 250.871 460.23 256.012C460.23 259.81 460.102 263.736 459.867 267.81C459.632 271.843 459.312 275.768 458.864 279.565C458.48 282.979 455.387 285.432 451.974 285.048C448.539 284.664 446.107 281.571 446.491 278.136C446.918 274.424 447.238 270.733 447.451 267.106C447.643 263.608 447.75 259.896 447.75 255.991C447.75 251.042 447.558 246.177 447.216 241.441C446.854 236.641 446.299 231.82 445.573 227.062ZM316.87 437.904C320.134 436.816 323.654 438.565 324.742 441.83C325.83 445.094 324.081 448.614 320.817 449.702C310.534 453.137 299.868 455.782 288.88 457.574C278.107 459.323 267.12 460.219 256.005 460.219C244.891 460.219 233.904 459.302 223.131 457.553C212.165 455.782 201.499 453.137 191.194 449.68C187.93 448.592 186.181 445.051 187.269 441.808C188.357 438.544 191.898 436.795 195.141 437.883C204.805 441.104 214.81 443.6 225.072 445.265C235.056 446.886 245.403 447.718 256.006 447.718C266.608 447.718 276.934 446.886 286.918 445.265C297.201 443.622 307.184 441.126 316.87 437.904ZM170.887 179.7C168.455 177.268 168.455 173.321 170.887 170.868C173.319 168.436 177.266 168.436 179.719 170.868L198.664 189.813C201.096 192.245 201.096 196.213 198.664 198.645C196.232 201.077 192.285 201.077 189.832 198.645L170.887 179.7ZM340.19 349.007C337.758 346.575 337.758 342.628 340.19 340.175C342.622 337.743 346.569 337.743 349.023 340.175L375.049 366.202C377.481 368.634 377.481 372.581 375.049 375.034C372.617 377.466 368.67 377.466 366.217 375.034L340.19 349.007ZM332.318 170.869C334.75 168.437 338.697 168.437 341.15 170.869C343.582 173.301 343.582 177.248 341.15 179.701L322.206 198.646C319.774 201.078 315.827 201.078 313.374 198.646C310.942 196.214 310.942 192.267 313.374 189.814L332.318 170.869ZM163.059 340.132C165.491 337.7 169.438 337.7 171.891 340.132C174.323 342.564 174.323 346.511 171.891 348.964L145.822 375.034C143.39 377.466 139.443 377.466 136.989 375.034C134.557 372.602 134.557 368.655 136.989 366.202L163.059 340.132ZM330.227 330.553V330.532C332.488 329.508 334.003 327.182 333.875 324.537C332.68 301.474 323.656 280.759 309.767 265.825C301.703 257.143 291.997 250.401 281.244 246.241C283.57 244.662 285.724 242.87 287.708 240.886C295.815 232.779 300.828 221.557 300.828 209.184C300.828 196.81 295.815 185.61 287.708 177.481C279.602 169.374 268.38 164.361 256.007 164.361C243.633 164.361 232.412 169.375 224.305 177.481C216.198 185.588 211.185 196.81 211.185 209.184C211.185 221.557 216.198 232.779 224.305 240.886C226.289 242.87 228.444 244.662 230.769 246.241C220.017 250.401 210.31 257.143 202.246 265.825C188.465 280.652 179.461 301.176 178.182 324.067C177.84 326.691 179.227 329.336 181.744 330.51C206.15 341.881 230.769 347.556 255.599 347.556C280.431 347.577 305.288 341.903 330.227 330.553ZM255.602 335.14C233.991 335.14 212.423 330.425 190.917 320.974C192.752 302.626 200.261 286.284 211.376 274.337C223.067 261.75 238.768 254.049 256.006 254.049C273.244 254.049 288.945 261.751 300.636 274.337C311.751 286.284 319.261 302.605 321.095 320.931C299.079 330.403 277.255 335.14 255.602 335.14ZM278.877 186.357C284.722 192.203 288.349 200.289 288.349 209.227C288.349 218.166 284.722 226.252 278.877 232.098C273.031 237.943 264.946 241.57 256.007 241.57C247.069 241.57 238.983 237.943 233.138 232.098C227.292 226.252 223.666 218.166 223.666 209.227C223.666 200.289 227.292 192.203 233.138 186.357C238.983 180.512 247.069 176.885 256.007 176.885C264.946 176.885 273.032 180.512 278.877 186.357ZM152.113 494.955V494.933C154.374 493.909 155.889 491.584 155.761 488.938C154.587 465.876 145.542 445.161 131.675 430.227C123.61 421.544 113.904 414.803 103.152 410.643C105.477 409.064 107.632 407.272 109.616 405.288C117.723 397.181 122.736 385.959 122.736 373.585C122.736 361.212 117.722 350.011 109.616 341.883C101.509 333.776 90.2872 328.763 77.9139 328.763C65.5406 328.763 54.3191 333.776 46.2122 341.883C38.084 350.032 33.071 361.233 33.071 373.628C33.071 386.001 38.0844 397.223 46.1909 405.33C48.1749 407.314 50.3296 409.106 52.655 410.685C41.9026 414.845 32.1961 421.587 24.1318 430.27C10.3505 445.096 1.34739 465.62 0.0677819 488.511C-0.273555 491.135 1.11315 493.781 3.63047 494.954C28.0363 506.325 52.6552 512 77.4849 512C102.296 511.979 127.174 506.304 152.113 494.955ZM77.4881 499.541C55.8774 499.541 34.3092 494.827 12.8034 485.375C14.6381 467.028 22.1473 450.686 33.2623 438.739C44.9529 426.152 60.6544 418.451 77.8922 418.451C95.13 418.451 110.831 426.152 122.522 438.739C133.637 450.686 141.147 467.007 142.981 485.332C120.965 494.805 99.1409 499.52 77.4881 499.541ZM100.763 350.759C106.608 356.604 110.235 364.69 110.235 373.629C110.235 382.568 106.608 390.654 100.763 396.499C94.9176 402.345 86.832 405.972 77.8933 405.972C68.9547 405.972 60.8691 402.345 55.0238 396.499C49.1784 390.654 45.5515 382.568 45.5515 373.629C45.5515 364.69 49.1782 356.604 55.0238 350.759C60.8691 344.913 68.9547 341.287 77.8933 341.287C86.832 341.287 94.9176 344.892 100.763 350.759ZM508.341 494.954V494.932C510.603 493.908 512.117 491.583 511.989 488.937C510.795 465.875 501.77 445.16 487.882 430.226C479.818 421.543 470.111 414.802 459.359 410.642C461.684 409.063 463.839 407.271 465.823 405.287C473.93 397.18 478.943 385.958 478.943 373.584C478.943 361.211 473.929 350.01 465.823 341.882C457.716 333.775 446.495 328.762 434.121 328.762C421.748 328.762 410.526 333.775 402.419 341.882C394.313 349.989 389.3 361.211 389.3 373.584C389.3 385.958 394.313 397.18 402.419 405.287C404.403 407.271 406.558 409.063 408.884 410.642C398.131 414.802 388.425 421.543 380.36 430.226C366.579 445.053 357.576 465.577 356.296 488.468C355.955 491.092 357.342 493.737 359.859 494.911C384.265 506.281 408.884 511.957 433.713 511.957C458.525 511.978 483.403 506.303 508.341 494.954ZM433.717 499.541C412.106 499.541 390.538 494.826 369.032 485.375C370.867 467.027 378.376 450.685 389.491 438.738C401.182 426.151 416.883 418.45 434.121 418.45C451.359 418.45 467.06 426.152 478.751 438.738C489.866 450.685 497.375 467.006 499.21 485.331C477.194 494.804 455.369 499.519 433.717 499.541ZM456.992 350.758C462.837 356.604 466.464 364.689 466.464 373.628C466.464 382.567 462.837 390.653 456.992 396.498C451.146 402.344 443.061 405.971 434.122 405.971C425.183 405.971 417.098 402.344 411.252 396.498C405.407 390.653 401.78 382.567 401.78 373.628C401.78 364.689 405.407 356.604 411.252 350.758C417.098 344.913 425.183 341.286 434.122 341.286C443.061 341.286 451.146 344.891 456.992 350.758ZM508.341 166.175C483.402 177.525 458.527 183.2 433.717 183.2C408.884 183.2 384.265 177.525 359.862 166.154C357.345 164.981 355.98 162.335 356.3 159.711C357.58 136.841 366.582 116.318 380.364 101.47C388.428 92.7868 398.134 86.0451 408.887 81.8851C406.561 80.3064 404.407 78.5143 402.423 76.5303C394.316 68.4232 389.303 57.2014 389.303 44.8278C389.303 32.4542 394.316 21.2324 402.423 13.1254C410.529 5.01831 421.751 0.00518767 434.124 0.00518767C446.498 0.00518767 457.719 5.01869 465.826 13.1254C473.933 21.2321 478.946 32.4542 478.946 44.8278C478.946 57.2014 473.933 68.4019 465.826 76.5303C463.842 78.5143 461.687 80.3064 459.362 81.8851C470.114 86.0453 479.821 92.7868 487.885 101.47C501.774 116.403 510.798 137.118 511.992 160.181C512.12 162.805 510.603 165.151 508.341 166.175ZM433.717 170.762C455.349 170.762 477.194 166.026 499.21 156.553C497.375 138.227 489.866 121.907 478.751 109.96C467.06 97.3731 451.359 89.6718 434.121 89.6718C416.883 89.6718 401.182 97.3736 389.491 109.96C378.376 121.929 370.866 138.249 369.032 156.597C390.536 166.026 412.104 170.762 433.717 170.762ZM456.992 21.9796C451.146 16.1129 443.061 12.5072 434.122 12.5072C425.183 12.5072 417.098 16.134 411.252 21.9796C405.407 27.8251 401.78 35.9109 401.78 44.8497C401.78 53.7886 405.407 61.8743 411.252 67.7198C417.098 73.5653 425.183 77.1922 434.122 77.1922C443.061 77.1922 451.146 73.5655 456.992 67.7198C462.837 61.8743 466.464 53.7886 466.464 44.8497C466.464 35.9109 462.837 27.8251 456.992 21.9796ZM77.4903 170.762C99.1223 170.762 120.968 166.026 142.983 156.553C141.149 138.227 133.639 121.907 122.524 109.96C110.834 97.3731 95.1322 89.6718 77.8944 89.6718C60.6566 89.6718 44.9557 97.3949 33.2645 109.96C22.1494 121.929 14.64 138.249 12.8055 156.597C34.3311 166.026 55.8779 170.762 77.4903 170.762ZM100.765 21.9796C94.9198 16.1342 86.8342 12.5072 77.8955 12.5072C68.9569 12.5072 60.8713 16.134 55.0259 21.9796C49.1806 27.8251 45.5537 35.9109 45.5537 44.8497C45.5537 53.7886 49.1804 61.8743 55.0259 67.7198C60.8713 73.5653 68.9569 77.1922 77.8955 77.1922C86.8342 77.1922 94.9198 73.5655 100.765 67.7198C106.61 61.8743 110.237 53.7886 110.237 44.8497C110.237 35.9109 106.632 27.8251 100.765 21.9796Z" fill="#1A3B34"/>
</svg>
