<svg width="274" height="197" viewBox="0 0 274 197" fill="none" xmlns="http://www.w3.org/2000/svg">
<g clip-path="url(#clip0_168_1697)">
<mask id="mask0_168_1697" style="mask-type:luminance" maskUnits="userSpaceOnUse" x="168" y="47" width="106" height="103">
<path d="M273.995 47.0464H168.953V149.958H273.995V47.0464Z" fill="white"/>
</mask>
<g mask="url(#mask0_168_1697)">
<path d="M250.852 59.3903C251.613 60.2293 252.336 61.102 253.025 62.0085C252.654 61.5215 252.283 61.0345 251.913 60.5427C254.028 63.3442 255.763 66.4109 257.123 69.6559C256.885 69.0821 256.643 68.5035 256.405 67.9297C257.965 71.6956 259.001 75.6543 259.552 79.6998C259.467 79.0585 259.381 78.4172 259.296 77.7759C259.88 82.2168 259.876 86.7155 259.296 91.1564C259.381 90.5151 259.467 89.8738 259.552 89.2325C258.972 93.5528 257.85 97.7767 256.182 101.798C256.424 101.22 256.662 100.646 256.9 100.072C255.074 104.426 252.683 108.51 249.835 112.257C250.206 111.77 250.577 111.283 250.952 110.791C247.715 115.024 243.93 118.795 239.761 122.079C240.241 121.703 240.721 121.326 241.206 120.946C236.476 124.644 231.275 127.696 225.779 130.059C226.345 129.818 226.915 129.572 227.481 129.331C220.949 132.118 214.032 133.907 207.019 134.881C207.652 134.794 208.284 134.707 208.916 134.62C201.495 135.633 193.974 135.729 186.519 135.107C184.39 134.929 182.264 134.693 180.149 134.403C180.781 134.49 181.413 134.577 182.046 134.664C180.686 134.476 179.326 134.268 177.971 134.037C177.025 133.733 176.075 133.694 175.128 133.907C174.178 133.95 173.298 134.234 172.476 134.765C170.997 135.642 169.585 137.364 169.2 139.085C168.782 140.937 168.872 143.015 169.918 144.659C170.864 146.149 172.381 147.678 174.178 147.981C180.444 149.042 186.786 149.775 193.137 149.929C199.498 150.084 205.807 149.597 212.097 148.637C217.778 147.774 223.383 146.347 228.765 144.293C233.795 142.369 238.682 140.035 243.227 137.113C252.25 131.317 260.142 123.607 265.704 114.32C271.252 105.062 274.224 94.2134 273.996 83.3692C273.929 80.37 273.582 77.3805 273.097 74.4247C272.707 72.0572 272.146 69.7186 271.404 67.4427C269.76 62.3798 267.43 57.4953 264.235 53.2473C263.18 51.849 262.12 50.4651 260.945 49.168C259.743 47.8372 257.651 47.0513 255.901 47.0513C254.152 47.0513 252.065 47.842 250.857 49.168C249.612 50.5471 248.684 52.3553 248.77 54.284C248.856 56.2513 249.535 57.9341 250.857 59.3999" fill="#E7D3E0"/>
</g>
<mask id="mask1_168_1697" style="mask-type:luminance" maskUnits="userSpaceOnUse" x="0" y="0" width="240" height="197">
<path d="M239.475 0H0V197H239.475V0Z" fill="white"/>
</mask>
<g mask="url(#mask1_168_1697)">
<path d="M239.475 193.654C239.475 195.5 237.997 197 236.176 197H168.886C167.412 197 166.114 196.012 165.715 194.575C160.647 176.372 144.069 163.026 124.425 163.026C112.564 163.026 101.834 167.876 94.0749 175.712C88.9356 180.861 85.0895 187.328 83.0738 194.57C82.6744 196.007 81.3765 197 79.9028 197H3.4277C1.60686 197 0.128324 195.5 0.128324 193.654V144.558C0.128324 144.495 0.128324 144.404 0.0997992 144.341C-0.114137 140.643 -5.54336 37.2341 109.535 23.463C129.736 21.0521 148.372 21.3944 165.163 23.463C167.445 23.7427 168.962 25.9945 168.453 28.2655L155.94 84.0539C155.546 85.8139 154.034 87.0531 152.256 87.1158C140.894 87.5208 128.804 89.5894 116.281 94.0447C112.141 95.5057 108.123 97.4296 104.358 99.7634C100.127 102.406 96.1714 105.578 92.7104 109.214C89.3397 112.763 86.3969 116.77 84.0389 121.119C81.6808 125.473 79.898 130.136 78.8236 134.987C78.2436 137.441 77.8775 139.963 77.6588 142.48C77.5685 143.57 77.3213 144.814 77.8727 145.841C78.3339 146.68 79.1896 146.93 80.0169 146.525C81.3052 145.807 81.8567 144.442 82.5603 143.198C83.3876 141.675 84.3384 140.214 85.351 138.815C86.9769 136.641 88.6932 134.524 90.533 132.508C92.6771 130.175 94.9496 127.995 97.3695 125.946C100.094 123.612 102.979 121.5 105.984 119.571C109.388 117.426 112.915 115.531 116.59 113.882C120.698 112.016 124.958 110.492 129.313 109.248C134.247 107.879 139.272 106.856 144.336 106.205C150.126 105.429 155.983 105.116 161.836 105.149C195.861 105.333 215.267 124.017 226.183 142.673C235.163 158.059 239.485 175.818 239.485 193.663" fill="#E7D3E0"/>
<path d="M115.212 29.3168C110.305 39.3654 98.301 43.4784 88.3934 38.5023C78.4858 33.5262 74.4305 21.3463 79.3368 11.3025C84.2431 1.25383 96.252 -2.85918 106.16 2.11693C116.067 7.09304 120.123 19.2681 115.216 29.3216" fill="white"/>
<path d="M114.832 44.6933C115.935 49.872 117.137 55.0217 119.386 59.8338C121.335 64.0047 124.131 67.9152 127.658 70.8613C131.481 74.0485 135.997 76.0062 140.908 76.5993C145.263 77.1249 149.675 76.363 153.616 74.4198C158.204 72.1584 161.769 68.3588 164.802 64.2844C165.397 63.4839 164.954 62.1097 164.122 61.6661C163.129 61.1357 162.178 61.4974 161.541 62.3508C161.451 62.4714 161.365 62.5871 161.275 62.7028C161.066 62.9825 161.265 62.7173 161.303 62.6691C161.161 62.8667 161.004 63.0596 160.852 63.2525C160.514 63.6768 160.172 64.0963 159.82 64.511C159.145 65.3018 158.441 66.0636 157.704 66.7869C157.353 67.1341 156.991 67.4716 156.625 67.7995C156.44 67.9634 156.254 68.1273 156.064 68.2865C155.969 68.3684 155.874 68.4456 155.779 68.5227C155.708 68.5806 155.27 68.9229 155.641 68.6385C154.833 69.2605 153.991 69.8391 153.117 70.3598C152.684 70.6154 152.242 70.8565 151.79 71.0783C151.562 71.194 151.334 71.3001 151.101 71.4062C151.006 71.4496 150.683 71.5894 151.058 71.4303C150.915 71.4881 150.773 71.5508 150.63 71.6039C149.713 71.9655 148.776 72.2596 147.816 72.4814C147.369 72.5827 146.917 72.6695 146.461 72.7418C146.361 72.7563 145.9 72.8624 146.409 72.7515C146.318 72.7708 146.218 72.7756 146.128 72.7852C145.848 72.819 145.567 72.8431 145.282 72.8672C144.269 72.9443 143.252 72.9492 142.244 72.8865C141.759 72.8575 141.246 72.8479 140.765 72.7466C141.179 72.8334 140.918 72.7708 140.822 72.7563C140.675 72.7322 140.528 72.7129 140.376 72.684C140.076 72.6357 139.781 72.5779 139.482 72.5152C138.45 72.2982 137.438 72.0137 136.444 71.6569C136.197 71.5701 135.954 71.4785 135.712 71.3772C135.588 71.329 135.469 71.276 135.346 71.2278C135.697 71.3676 135.431 71.2663 135.36 71.2326C134.827 70.9867 134.3 70.7359 133.782 70.4563C132.788 69.9211 131.842 69.3087 130.939 68.6336C130.939 68.6336 130.53 68.3202 130.753 68.4938C130.977 68.6674 130.568 68.3443 130.573 68.3491C130.368 68.1804 130.164 68.0116 129.964 67.838C129.527 67.4571 129.099 67.0617 128.69 66.6567C127.905 65.8804 127.169 65.0559 126.479 64.1928C126.413 64.1108 126.351 64.0288 126.284 63.9468C126.246 63.8986 125.928 63.4743 126.199 63.8359C126.042 63.6286 125.89 63.4164 125.738 63.2043C125.419 62.7607 125.115 62.3074 124.82 61.8493C124.254 60.967 123.731 60.0508 123.251 59.1202C122.971 58.5753 122.704 58.0208 122.448 57.4615C122.386 57.3217 122.319 57.177 122.258 57.0372C122.229 56.9745 121.991 56.4055 122.124 56.7286C121.996 56.4152 121.872 56.1066 121.754 55.7883C121.245 54.4671 120.803 53.1219 120.413 51.7573C119.643 49.0956 119.058 46.381 118.483 43.6711C118.274 42.6923 117.095 42.0269 116.158 42.3355C115.141 42.6682 114.618 43.6422 114.841 44.6933" fill="#233B34"/>
</g>
<mask id="mask2_168_1697" style="mask-type:luminance" maskUnits="userSpaceOnUse" x="86" y="14" width="22" height="22">
<path d="M107.957 14.0122H86.8247V35.4452H107.957V14.0122Z" fill="white"/>
</mask>
<g mask="url(#mask2_168_1697)">
<path d="M106.865 29.4806C104.274 34.7846 97.9419 36.9544 92.7124 34.3313C87.4828 31.7034 85.3435 25.2759 87.9297 19.9768C90.5207 14.6728 96.8533 12.503 102.083 15.126C107.312 17.7539 109.452 24.1814 106.865 29.4806Z" fill="black"/>
</g>
</g>
<defs>
<clipPath id="clip0_168_1697">
<rect width="274" height="197" fill="white"/>
</clipPath>
</defs>
</svg>
