<svg width="148" height="30" viewBox="0 0 148 30" fill="none" xmlns="http://www.w3.org/2000/svg">
<g clip-path="url(#clip0_163_903)">
<mask id="mask0_163_903" style="mask-type:luminance" maskUnits="userSpaceOnUse" x="0" y="0" width="26" height="30">
<path d="M25.5305 0H0V29.2941H25.5305V0Z" fill="white"/>
</mask>
<g mask="url(#mask0_163_903)">
<path d="M25.5304 17.8187V28.8813C25.5304 29.1094 25.3431 29.2942 25.1118 29.2942H18.2583C18.0271 29.2942 17.8372 29.1069 17.8372 28.8788V19.1311C17.8372 16.6528 15.7882 14.6446 13.2651 14.6446C12.0004 14.6446 10.857 15.1479 10.0302 15.9596C9.19952 16.7687 8.68664 17.89 8.68664 19.1311V28.8813C8.68664 29.1094 8.49931 29.2942 8.26806 29.2942H0.435273C0.202731 29.2942 0.0141141 29.1082 0.0141141 28.8788V12.7295C0.0141141 12.7231 0.0141141 12.7129 0.0102384 12.7065C-0.0130158 12.323 -0.591787 1.60179 11.6774 0.174674C13.831 -0.0750707 15.8179 -0.0393928 17.6072 0.174674C17.8501 0.203981 18.0129 0.437162 17.9586 0.672891L16.6254 6.45653C16.5827 6.63874 16.4225 6.76744 16.2326 6.77381C15.0208 6.81586 13.7328 7.02992 12.397 7.49246C11.9551 7.64409 11.5275 7.84414 11.1257 8.08497C10.6749 8.35892 10.2537 8.68767 9.88423 9.06484C9.52508 9.43181 9.21115 9.84848 8.95923 10.2995C8.70731 10.7506 8.5174 11.2348 8.40371 11.7369C8.3417 11.9917 8.30294 12.2529 8.27969 12.5141C8.26935 12.6275 8.24351 12.7562 8.30294 12.862C8.35203 12.9486 8.44376 12.9754 8.53161 12.9333C8.66855 12.8594 8.72798 12.718 8.80291 12.588C8.89076 12.43 8.99282 12.2784 9.10004 12.1331C9.27316 11.9076 9.45661 11.6884 9.65168 11.4795C9.88035 11.2374 10.1219 11.0118 10.3803 10.799C10.671 10.5569 10.9785 10.3378 11.2989 10.1377C11.6619 9.91473 12.0378 9.71851 12.4293 9.54776C12.8672 9.35408 13.322 9.19608 13.7858 9.06739C14.3116 8.92595 14.8477 8.81892 15.3877 8.75138C16.0052 8.67111 16.6292 8.63798 17.2532 8.6418C20.8809 8.66091 22.9492 10.5977 24.1132 12.532C25.0705 14.1273 25.5317 15.9685 25.5317 17.8187" fill="#EDD3E3"/>
</g>
<mask id="mask1_163_903" style="mask-type:luminance" maskUnits="userSpaceOnUse" x="26" y="9" width="25" height="21">
<path d="M50.1012 9.354H26.6157V30H50.1012V9.354Z" fill="white"/>
</mask>
<g mask="url(#mask1_163_903)">
<path d="M42.5853 18.7513C42.5853 22.2885 40.8826 24.4011 38.0313 24.4011C35.5535 24.4011 34.1337 22.6861 34.1337 19.6968V9.60247C34.1337 9.46613 34.0251 9.35528 33.8921 9.35528H26.8887C26.7556 9.35528 26.6471 9.46486 26.6471 9.6012L26.6174 20.641C26.6019 23.6315 27.4507 26.0907 29.072 27.7536C30.5047 29.2228 32.4904 30 34.8158 30C38.1437 30 40.9058 28.4633 42.5775 25.7365C42.6951 25.5441 42.9845 25.6066 43.0194 25.8308L43.5426 29.1501C43.562 29.2699 43.6627 29.3578 43.7816 29.3578H49.8613C49.9956 29.3578 50.1028 29.247 50.1028 29.1106V9.6012C50.1028 9.46486 49.9943 9.354 49.8613 9.354H42.8282C42.6938 9.354 42.5866 9.46486 42.5866 9.6012V18.7513H42.5853Z" fill="#EDD3E3"/>
</g>
<mask id="mask2_163_903" style="mask-type:luminance" maskUnits="userSpaceOnUse" x="51" y="3" width="25" height="27">
<path d="M75.9533 3.99219H51.2871V29.8752H75.9533V3.99219Z" fill="white"/>
</mask>
<g mask="url(#mask2_163_903)">
<path d="M73.4472 11.757C71.7988 9.86356 69.4863 8.86075 66.7565 8.86075C63.5668 8.86075 60.7737 10.358 59.1898 12.8006C59.0581 13.0045 58.7493 12.914 58.7493 12.6694V4.23537C58.7493 4.1003 58.6421 3.99072 58.5103 3.99072H51.5276C51.3958 3.99072 51.2886 4.1003 51.2886 4.23537V29.0315C51.2886 29.1666 51.3958 29.2761 51.5276 29.2761H57.5388C57.6538 29.2761 57.7532 29.192 57.7739 29.0774L58.4186 25.5682C58.4599 25.3465 58.7493 25.2942 58.8591 25.4905C60.3784 28.1943 63.3355 29.875 66.7565 29.875C69.4876 29.875 71.8014 28.8799 73.4472 26.9991C75.0854 25.1248 75.9522 22.4923 75.9522 19.387C75.9522 16.2818 75.0854 13.6416 73.4472 11.757ZM64.1068 23.5142C61.4442 23.5142 59.7234 21.8946 59.7234 19.387C59.7234 16.8794 61.4442 15.2216 64.1068 15.2216C66.7694 15.2216 68.4915 16.8551 68.4915 19.387C68.4915 21.9189 66.7707 23.5142 64.1068 23.5142Z" fill="#EDD3E3"/>
</g>
<mask id="mask3_163_903" style="mask-type:luminance" maskUnits="userSpaceOnUse" x="76" y="8" width="24" height="22">
<path d="M99.05 8.69287H76.8784V29.9824H99.05V8.69287Z" fill="white"/>
</mask>
<g mask="url(#mask3_163_903)">
<path d="M96.0231 11.6197C94.0323 9.70459 91.2379 8.69287 87.9448 8.69287C84.6518 8.69287 81.869 9.70459 79.886 11.6197C77.9184 13.5209 76.8784 16.1852 76.8784 19.3249C76.8784 22.4645 77.9184 25.148 79.886 27.0517C81.8664 28.9694 84.6531 29.9824 87.9448 29.9824C91.2366 29.9824 94.031 28.9694 96.0231 27.053C98.0049 25.1455 99.0513 22.4735 99.0513 19.3249C99.0513 16.1763 98.0049 13.5234 96.0231 11.6197ZM87.9448 23.6037C85.1259 23.6037 83.3043 21.9243 83.3043 19.3249C83.3043 16.7255 85.1259 15.0474 87.9448 15.0474C90.7638 15.0474 92.5853 16.7268 92.5853 19.3249C92.5853 21.923 90.7638 23.6037 87.9448 23.6037Z" fill="#EDD3E3"/>
</g>
<mask id="mask4_163_903" style="mask-type:luminance" maskUnits="userSpaceOnUse" x="99" y="3" width="26" height="27">
<path d="M124.765 3.7168H99.8481V29.8623H124.765V3.7168Z" fill="white"/>
</mask>
<g mask="url(#mask4_163_903)">
<path d="M99.8481 19.2671C99.8481 22.4029 100.724 25.0622 102.379 26.9556C104.043 28.8555 106.379 29.8608 109.138 29.8608C112.594 29.8608 115.582 28.1623 117.117 25.4317C117.228 25.2342 117.521 25.2864 117.563 25.5107L118.214 29.0555C118.236 29.1728 118.335 29.2569 118.451 29.2569H124.523C124.658 29.2569 124.765 29.146 124.765 29.0097V3.96253C124.765 3.82619 124.656 3.71533 124.523 3.71533H117.47C117.337 3.71533 117.228 3.82619 117.228 3.96253V12.4819C117.228 12.7291 116.915 12.8208 116.782 12.6144C115.183 10.1475 112.361 8.63506 109.138 8.63506C106.381 8.63506 104.044 9.64678 102.379 11.5606C100.724 13.4643 99.8481 16.1287 99.8481 19.2683M107.385 19.2671C107.385 16.7097 109.124 15.0596 111.815 15.0596C114.506 15.0596 116.242 16.7097 116.242 19.2671C116.242 21.8244 114.503 23.4363 111.815 23.4363C109.127 23.4363 107.385 21.8002 107.385 19.2671Z" fill="#EDD3E3"/>
</g>
<mask id="mask5_163_903" style="mask-type:luminance" maskUnits="userSpaceOnUse" x="125" y="8" width="23" height="22">
<path d="M148 8.82031H125.556V29.855H148V8.82031Z" fill="white"/>
</mask>
<g mask="url(#mask5_163_903)">
<path d="M147.828 21.2286C147.975 20.5494 147.998 19.8919 147.998 19.3568C147.998 16.2375 146.951 13.5884 144.969 11.6975C142.996 9.8142 140.241 8.82031 136.997 8.82031C130.259 8.82031 125.554 13.1373 125.554 19.3185C125.554 22.4658 126.762 25.1277 129.049 27.016C131.295 28.8726 134.426 29.8537 138.102 29.8537C141.779 29.8537 145.493 28.8305 147.514 27.0708L147.615 26.9804C147.709 26.895 147.739 26.751 147.687 26.6299L145.904 22.4697C145.845 22.332 145.686 22.2849 145.571 22.3728C144.087 23.5094 141.275 24.2739 138.573 24.2739C135.87 24.2739 134.069 23.4559 133.197 22.0033C133.099 21.8389 133.204 21.621 133.383 21.621H147.489C147.644 21.621 147.779 21.5013 147.807 21.3343L147.827 21.2273L147.828 21.2286ZM133.103 17.3524C132.953 17.3524 132.844 17.1957 132.886 17.039C133.351 15.3035 134.942 14.1376 136.944 14.1376C138.945 14.1376 140.575 15.3366 140.91 17.0594C140.939 17.211 140.831 17.3524 140.689 17.3524H133.103Z" fill="#EDD3E3"/>
</g>
</g>
<defs>
<clipPath id="clip0_163_903">
<rect width="148" height="30" fill="white"/>
</clipPath>
</defs>
</svg>
