<svg width="178" height="36" viewBox="0 0 178 36" fill="none" xmlns="http://www.w3.org/2000/svg">
<g clip-path="url(#clip0_252_242)">
<mask id="mask0_252_242" style="mask-type:luminance" maskUnits="userSpaceOnUse" x="0" y="0" width="31" height="36">
<path d="M30.7056 0H0V35.1529H30.7056V0Z" fill="white"/>
</mask>
<g mask="url(#mask0_252_242)">
<path d="M30.7056 21.3824V34.6576C30.7056 34.9313 30.4803 35.153 30.2022 35.153H21.9594C21.6813 35.153 21.4529 34.9283 21.4529 34.6546V22.9573C21.4529 19.9833 18.9886 17.5735 15.9541 17.5735C14.433 17.5735 13.0579 18.1775 12.0635 19.1515C11.0644 20.1224 10.4476 21.468 10.4476 22.9573V34.6576C10.4476 34.9313 10.2223 35.153 9.94414 35.153H0.523626C0.243948 35.153 0.0170971 34.9298 0.0170971 34.6546V15.2754C0.0170971 15.2677 0.0170971 15.2555 0.0124358 15.2478C-0.015532 14.7876 -0.711621 1.92215 14.0445 0.209607C16.6347 -0.0900871 19.0244 -0.0472736 21.1763 0.209607C21.4685 0.244775 21.6642 0.524592 21.599 0.807466L19.9955 7.74783C19.9442 7.96649 19.7515 8.12092 19.5231 8.12857C18.0657 8.17902 16.5166 8.43591 14.91 8.99095C14.3786 9.17291 13.8643 9.41297 13.3811 9.70196C12.8388 10.0307 12.3323 10.4252 11.8879 10.8778C11.456 11.3182 11.0784 11.8182 10.7754 12.3595C10.4724 12.9007 10.244 13.4818 10.1073 14.0842C10.0327 14.39 9.98609 14.7035 9.95812 15.0169C9.94569 15.153 9.91462 15.3075 9.98609 15.4344C10.0451 15.5384 10.1555 15.5705 10.2611 15.52C10.4258 15.4313 10.4973 15.2616 10.5874 15.1056C10.6931 14.916 10.8158 14.7341 10.9448 14.5598C11.153 14.2891 11.3736 14.0261 11.6082 13.7754C11.8832 13.4848 12.1738 13.2142 12.4846 12.9588C12.8342 12.6683 13.204 12.4053 13.5893 12.1653C14.0259 11.8977 14.478 11.6622 14.9488 11.4573C15.4756 11.2249 16.0225 11.0353 16.5803 10.8809C17.2127 10.7111 17.8575 10.5827 18.507 10.5017C19.2497 10.4053 20.0001 10.3656 20.7506 10.3702C25.1136 10.3931 27.6012 12.7173 29.0011 15.0384C30.1525 16.9527 30.7072 19.1622 30.7072 21.3824" fill="white"/>
</g>
<mask id="mask1_252_242" style="mask-type:luminance" maskUnits="userSpaceOnUse" x="32" y="11" width="29" height="25">
<path d="M60.2568 11.2248H32.0108V36H60.2568V11.2248Z" fill="white"/>
</mask>
<g mask="url(#mask1_252_242)">
<path d="M51.2172 22.5015C51.2172 26.7462 49.1693 29.2813 45.7401 29.2813C42.76 29.2813 41.0524 27.2232 41.0524 23.6361V11.5229C41.0524 11.3593 40.9219 11.2263 40.7619 11.2263H32.3389C32.1788 11.2263 32.0483 11.3578 32.0483 11.5214L32.0126 24.7691C31.9939 28.3578 33.0148 31.3089 34.9647 33.3043C36.6879 35.0673 39.076 36 41.8728 36C45.8753 36 49.1973 34.156 51.2079 30.8838C51.3493 30.6529 51.6973 30.7278 51.7393 30.9969L52.3685 34.9801C52.3918 35.1238 52.513 35.2294 52.656 35.2294H59.968C60.1296 35.2294 60.2586 35.0963 60.2586 34.9327V11.5214C60.2586 11.3578 60.1281 11.2248 59.968 11.2248H51.5093C51.3477 11.2248 51.2187 11.3578 51.2187 11.5214V22.5015H51.2172Z" fill="white"/>
</g>
<mask id="mask2_252_242" style="mask-type:luminance" maskUnits="userSpaceOnUse" x="61" y="4" width="31" height="32">
<path d="M91.3493 4.79052H61.6832V35.8502H91.3493V4.79052Z" fill="white"/>
</mask>
<g mask="url(#mask2_252_242)">
<path d="M88.3352 14.1084C86.3525 11.8362 83.5713 10.6329 80.2882 10.6329C76.4519 10.6329 73.0927 12.4295 71.1877 15.3607C71.0293 15.6053 70.6579 15.4968 70.6579 15.2032V5.0824C70.6579 4.92032 70.5289 4.78882 70.3705 4.78882H61.9723C61.8138 4.78882 61.6849 4.92032 61.6849 5.0824V34.8377C61.6849 34.9998 61.8138 35.1313 61.9723 35.1313H69.202C69.3403 35.1313 69.4599 35.0304 69.4848 34.8928L70.2601 30.6818C70.3099 30.4157 70.6579 30.353 70.79 30.5885C72.6172 33.8332 76.1738 35.85 80.2882 35.85C83.5728 35.85 86.3557 34.6558 88.3352 32.3989C90.3053 30.1497 91.3479 26.9907 91.3479 23.2644C91.3479 19.5381 90.3053 16.3699 88.3352 14.1084ZM77.1014 28.217C73.8991 28.217 71.8294 26.2735 71.8294 23.2644C71.8294 20.2552 73.8991 18.2659 77.1014 18.2659C80.3037 18.2659 82.3749 20.2261 82.3749 23.2644C82.3749 26.3026 80.3053 28.217 77.1014 28.217Z" fill="white"/>
</g>
<mask id="mask3_252_242" style="mask-type:luminance" maskUnits="userSpaceOnUse" x="92" y="10" width="28" height="26">
<path d="M119.128 10.4312H92.4618V35.9786H119.128V10.4312Z" fill="white"/>
</mask>
<g mask="url(#mask3_252_242)">
<path d="M115.487 13.9434C113.093 11.6453 109.732 10.4312 105.771 10.4312C101.811 10.4312 98.464 11.6453 96.079 13.9434C93.7126 16.2248 92.4618 19.422 92.4618 23.1896C92.4618 26.9572 93.7126 30.1774 96.079 32.4618C98.4609 34.763 101.812 35.9786 105.771 35.9786C109.73 35.9786 113.091 34.763 115.487 32.4633C117.871 30.1743 119.129 26.9679 119.129 23.1896C119.129 19.4113 117.871 16.2278 115.487 13.9434ZM105.771 28.3242C102.381 28.3242 100.19 26.3089 100.19 23.1896C100.19 20.0703 102.381 18.0566 105.771 18.0566C109.162 18.0566 111.353 20.0719 111.353 23.1896C111.353 26.3073 109.162 28.3242 105.771 28.3242Z" fill="white"/>
</g>
<mask id="mask4_252_242" style="mask-type:luminance" maskUnits="userSpaceOnUse" x="120" y="4" width="31" height="32">
<path d="M150.055 4.46024H120.088V35.8349H150.055V4.46024Z" fill="white"/>
</mask>
<g mask="url(#mask4_252_242)">
<path d="M120.088 23.1206C120.088 26.8836 121.141 30.0748 123.132 32.3469C125.133 34.6267 127.942 35.8332 131.261 35.8332C135.417 35.8332 139.011 33.7949 140.857 30.5182C140.991 30.2812 141.343 30.3439 141.393 30.613L142.176 34.8668C142.203 35.0075 142.322 35.1084 142.462 35.1084H149.765C149.926 35.1084 150.055 34.9754 150.055 34.8118V4.75518C150.055 4.59157 149.925 4.45855 149.765 4.45855H141.281C141.121 4.45855 140.991 4.59157 140.991 4.75518V14.9784C140.991 15.2751 140.615 15.3851 140.455 15.1374C138.531 12.1772 135.138 10.3622 131.261 10.3622C127.945 10.3622 125.134 11.5763 123.132 13.8729C121.141 16.1573 120.088 19.3546 120.088 23.1222M129.153 23.1206C129.153 20.0518 131.244 18.0717 134.48 18.0717C137.717 18.0717 139.805 20.0518 139.805 23.1206C139.805 26.1894 137.714 28.1237 134.48 28.1237C131.247 28.1237 129.153 26.1604 129.153 23.1206Z" fill="white"/>
</g>
<mask id="mask5_252_242" style="mask-type:luminance" maskUnits="userSpaceOnUse" x="151" y="10" width="27" height="26">
<path d="M178 10.5841H151.006V35.8257H178V10.5841Z" fill="white"/>
</mask>
<g mask="url(#mask5_252_242)">
<path d="M177.793 25.474C177.97 24.659 177.998 23.87 177.998 23.2278C177.998 19.4847 176.738 16.3058 174.355 14.0367C171.982 11.7768 168.668 10.5841 164.766 10.5841C156.663 10.5841 151.005 15.7645 151.005 23.182C151.005 26.9587 152.457 30.1529 155.208 32.419C157.91 34.6468 161.674 35.8242 166.096 35.8242C170.518 35.8242 174.986 34.5963 177.416 32.4847L177.537 32.3762C177.65 32.2737 177.686 32.1009 177.624 31.9557L175.48 26.9633C175.408 26.7982 175.217 26.7416 175.079 26.8471C173.293 28.211 169.912 29.1284 166.662 29.1284C163.412 29.1284 161.246 28.1468 160.197 26.4037C160.079 26.2064 160.205 25.945 160.42 25.945H177.386C177.573 25.945 177.734 25.8012 177.768 25.6009L177.792 25.4725L177.793 25.474ZM160.083 20.8226C159.903 20.8226 159.773 20.6346 159.822 20.4465C160.382 18.3639 162.296 16.9648 164.703 16.9648C167.109 16.9648 169.07 18.4037 169.473 20.471C169.508 20.6529 169.378 20.8226 169.207 20.8226H160.083Z" fill="white"/>
</g>
</g>
<defs>
<clipPath id="clip0_252_242">
<rect width="178" height="36" fill="white"/>
</clipPath>
</defs>
</svg>
