<svg width="178" height="36" viewBox="0 0 178 36" fill="none" xmlns="http://www.w3.org/2000/svg">
<g clip-path="url(#clip0_454_675)">
<mask id="mask0_454_675" style="mask-type:luminance" maskUnits="userSpaceOnUse" x="0" y="0" width="31" height="36">
<path d="M30.7056 0H0V35.1529H30.7056V0Z" fill="white"/>
</mask>
<g mask="url(#mask0_454_675)">
<path d="M30.7055 21.3824V34.6576C30.7055 34.9313 30.4802 35.153 30.2021 35.153H21.9593C21.6812 35.153 21.4528 34.9283 21.4528 34.6546V22.9573C21.4528 19.9833 18.9885 17.5735 15.954 17.5735C14.4329 17.5735 13.0578 18.1775 12.0634 19.1515C11.0643 20.1224 10.4474 21.468 10.4474 22.9573V34.6576C10.4474 34.9313 10.2221 35.153 9.94402 35.153H0.523504C0.243826 35.153 0.0169751 34.9298 0.0169751 34.6546V15.2754C0.0169751 15.2677 0.0169751 15.2555 0.0123138 15.2478C-0.0156541 14.7876 -0.711744 1.92215 14.0444 0.209607C16.6346 -0.0900871 19.0243 -0.0472736 21.1762 0.209607C21.4683 0.244775 21.6641 0.524592 21.5989 0.807466L19.9954 7.74783C19.9441 7.96649 19.7514 8.12092 19.523 8.12857C18.0656 8.17902 16.5165 8.43591 14.9099 8.99095C14.3785 9.17291 13.8642 9.41297 13.381 9.70196C12.8387 10.0307 12.3322 10.4252 11.8878 10.8778C11.4558 11.3182 11.0783 11.8182 10.7753 12.3595C10.4723 12.9007 10.2439 13.4818 10.1072 14.0842C10.0326 14.39 9.98597 14.7035 9.958 15.0169C9.94557 15.153 9.9145 15.3075 9.98597 15.4344C10.045 15.5384 10.1553 15.5705 10.261 15.52C10.4257 15.4313 10.4972 15.2616 10.5873 15.1056C10.6929 14.916 10.8157 14.7341 10.9446 14.5598C11.1529 14.2891 11.3735 14.0261 11.6081 13.7754C11.8831 13.4848 12.1737 13.2142 12.4844 12.9588C12.834 12.6683 13.2038 12.4053 13.5892 12.1653C14.0258 11.8977 14.4779 11.6622 14.9487 11.4573C15.4754 11.2249 16.0224 11.0353 16.5802 10.8809C17.2126 10.7111 17.8574 10.5827 18.5068 10.5017C19.2496 10.4053 20 10.3656 20.7505 10.3702C25.1135 10.3931 27.6011 12.7173 29.001 15.0384C30.1524 16.9527 30.7071 19.1622 30.7071 21.3824" fill="#1A3B34"/>
</g>
<mask id="mask1_454_675" style="mask-type:luminance" maskUnits="userSpaceOnUse" x="32" y="11" width="29" height="25">
<path d="M60.2577 11.2248H32.0117V36H60.2577V11.2248Z" fill="white"/>
</mask>
<g mask="url(#mask1_454_675)">
<path d="M51.2049 22.2768C51.2049 26.5214 49.157 29.0566 45.7278 29.0566C42.7477 29.0566 41.0401 26.9985 41.0401 23.4114V11.2982C41.0401 11.1346 40.9096 11.0016 40.7495 11.0016H32.3265C32.1665 11.0016 32.036 11.1331 32.036 11.2967L32.0003 24.5444C31.9816 28.1331 33.0024 31.0841 34.9524 33.0795C36.6755 34.8425 39.0637 35.7753 41.8605 35.7753C45.863 35.7753 49.185 33.9312 51.1955 30.6591C51.3369 30.4282 51.685 30.5031 51.7269 30.7722L52.3562 34.7554C52.3795 34.8991 52.5007 35.0046 52.6437 35.0046H59.9557C60.1173 35.0046 60.2463 34.8716 60.2463 34.708V11.2967C60.2463 11.1331 60.1157 11 59.9557 11H51.497C51.3354 11 51.2064 11.1331 51.2064 11.2967V22.2768H51.2049Z" fill="#1A3B34"/>
</g>
<mask id="mask2_454_675" style="mask-type:luminance" maskUnits="userSpaceOnUse" x="61" y="4" width="31" height="32">
<path d="M91.3497 4.79052H61.6836V35.8502H91.3497V4.79052Z" fill="white"/>
</mask>
<g mask="url(#mask2_454_675)">
<path d="M88.3358 14.1084C86.3532 11.8362 83.572 10.6329 80.2888 10.6329C76.4526 10.6329 73.0933 12.4295 71.1884 15.3607C71.0299 15.6053 70.6586 15.4968 70.6586 15.2032V5.0824C70.6586 4.92032 70.5296 4.78882 70.3711 4.78882H61.973C61.8145 4.78882 61.6855 4.92032 61.6855 5.0824V34.8377C61.6855 34.9998 61.8145 35.1313 61.973 35.1313H69.2027C69.341 35.1313 69.4606 35.0304 69.4855 34.8928L70.2608 30.6818C70.3105 30.4157 70.6586 30.353 70.7906 30.5885C72.6179 33.8332 76.1745 35.85 80.2888 35.85C83.5735 35.85 86.3563 34.6558 88.3358 32.3989C90.306 30.1497 91.3486 26.9907 91.3486 23.2644C91.3486 19.5381 90.306 16.3699 88.3358 14.1084ZM77.1021 28.217C73.8997 28.217 71.8301 26.2735 71.8301 23.2644C71.8301 20.2552 73.8997 18.2659 77.1021 18.2659C80.3044 18.2659 82.3756 20.2261 82.3756 23.2644C82.3756 26.3026 80.3059 28.217 77.1021 28.217Z" fill="#1A3B34"/>
</g>
<mask id="mask3_454_675" style="mask-type:luminance" maskUnits="userSpaceOnUse" x="92" y="10" width="28" height="26">
<path d="M119.127 10.4312H92.4609V35.9786H119.127V10.4312Z" fill="white"/>
</mask>
<g mask="url(#mask3_454_675)">
<path d="M115.486 13.9434C113.092 11.6453 109.731 10.4312 105.771 10.4312C101.81 10.4312 98.4632 11.6453 96.0781 13.9434C93.7117 16.2248 92.4609 19.422 92.4609 23.1896C92.4609 26.9572 93.7117 30.1774 96.0781 32.4618C98.46 34.763 101.812 35.9786 105.771 35.9786C109.73 35.9786 113.09 34.763 115.486 32.4633C117.87 30.1743 119.128 26.9679 119.128 23.1896C119.128 19.4113 117.87 16.2278 115.486 13.9434ZM105.771 28.3242C102.38 28.3242 100.189 26.3089 100.189 23.1896C100.189 20.0703 102.38 18.0566 105.771 18.0566C109.161 18.0566 111.352 20.0719 111.352 23.1896C111.352 26.3073 109.161 28.3242 105.771 28.3242Z" fill="#1A3B34"/>
</g>
<mask id="mask4_454_675" style="mask-type:luminance" maskUnits="userSpaceOnUse" x="120" y="4" width="31" height="32">
<path d="M150.055 4.46024H120.088V35.8349H150.055V4.46024Z" fill="white"/>
</mask>
<g mask="url(#mask4_454_675)">
<path d="M120.088 23.1206C120.088 26.8836 121.141 30.0748 123.132 32.3469C125.133 34.6267 127.942 35.8332 131.261 35.8332C135.417 35.8332 139.011 33.7949 140.857 30.5182C140.991 30.2812 141.343 30.3439 141.393 30.613L142.176 34.8668C142.203 35.0075 142.322 35.1084 142.462 35.1084H149.765C149.927 35.1084 150.055 34.9754 150.055 34.8118V4.75518C150.055 4.59157 149.925 4.45855 149.765 4.45855H141.281C141.121 4.45855 140.991 4.59157 140.991 4.75518V14.9784C140.991 15.2751 140.615 15.3851 140.455 15.1374C138.531 12.1772 135.138 10.3622 131.261 10.3622C127.945 10.3622 125.135 11.5763 123.132 13.8729C121.141 16.1573 120.088 19.3546 120.088 23.1222M129.153 23.1206C129.153 20.0518 131.244 18.0717 134.48 18.0717C137.717 18.0717 139.805 20.0518 139.805 23.1206C139.805 26.1894 137.714 28.1237 134.48 28.1237C131.247 28.1237 129.153 26.1604 129.153 23.1206Z" fill="#1A3B34"/>
</g>
<mask id="mask5_454_675" style="mask-type:luminance" maskUnits="userSpaceOnUse" x="151" y="10" width="27" height="26">
<path d="M178 10.5841H151.006V35.8257H178V10.5841Z" fill="white"/>
</mask>
<g mask="url(#mask5_454_675)">
<path d="M177.792 25.474C177.97 24.659 177.998 23.87 177.998 23.2278C177.998 19.4847 176.737 16.3058 174.354 14.0367C171.981 11.7768 168.667 10.5841 164.766 10.5841C156.663 10.5841 151.004 15.7645 151.004 23.182C151.004 26.9587 152.457 30.1529 155.207 32.419C157.909 34.6468 161.674 35.8242 166.096 35.8242C170.518 35.8242 174.985 34.5963 177.415 32.4847L177.536 32.3762C177.65 32.2737 177.685 32.1009 177.623 31.9557L175.479 26.9633C175.407 26.7982 175.216 26.7416 175.078 26.8471C173.293 28.211 169.912 29.1284 166.661 29.1284C163.411 29.1284 161.245 28.1468 160.196 26.4037C160.078 26.2064 160.204 25.945 160.42 25.945H177.385C177.572 25.945 177.733 25.8012 177.768 25.6009L177.791 25.4725L177.792 25.474ZM160.083 20.8226C159.902 20.8226 159.772 20.6346 159.822 20.4465C160.381 18.3639 162.295 16.9648 164.702 16.9648C167.109 16.9648 169.07 18.4037 169.472 20.471C169.508 20.6529 169.377 20.8226 169.206 20.8226H160.083Z" fill="#1A3B34"/>
</g>
</g>
<defs>
<clipPath id="clip0_454_675">
<rect width="178" height="36" fill="white"/>
</clipPath>
</defs>
</svg>
