<svg width="512" height="512" viewBox="0 0 512 512" fill="none" xmlns="http://www.w3.org/2000/svg">
<path d="M245.125 348.174L155.152 384.176V333.576C155.152 331.518 154.334 329.545 152.88 328.09C151.425 326.635 149.452 325.818 147.394 325.818C145.337 325.818 143.363 326.635 141.909 328.09C140.454 329.545 139.637 331.518 139.637 333.576V387.879H15.5152V77.5757H139.637V155.151C139.637 157.209 140.454 159.182 141.909 160.637C143.363 162.092 145.337 162.909 147.394 162.909C149.452 162.909 151.425 162.092 152.88 160.637C154.334 159.182 155.152 157.209 155.152 155.151V75.0724L294.788 19.2155V100.848C294.788 102.906 295.606 104.879 297.06 106.334C298.515 107.789 300.488 108.606 302.546 108.606C304.603 108.606 306.576 107.789 308.031 106.334C309.486 104.879 310.303 102.906 310.303 100.848V15.5151H434.425V147.394C434.425 149.451 435.242 151.425 436.697 152.879C438.152 154.334 440.125 155.151 442.182 155.151C444.24 155.151 446.213 154.334 447.668 152.879C449.123 151.425 449.94 149.451 449.94 147.394V7.75757C449.94 6.73876 449.74 5.72988 449.35 4.78857C448.96 3.84725 448.389 2.99196 447.668 2.27155C446.948 1.55114 446.093 0.979732 445.151 0.589972C444.21 0.200211 443.201 -0.000264733 442.182 2.62366e-07H302.546C301.56 0.00101159 300.583 0.188662 299.667 0.553038L299.525 0.609823L145.902 62.0606H7.75758C5.70015 62.0606 3.72697 62.8779 2.27214 64.3327C0.817314 65.7876 0 67.7607 0 69.8182V395.636C0 397.694 0.817314 399.667 2.27214 401.122C3.72697 402.577 5.70015 403.394 7.75758 403.394H147.394C148.382 403.394 149.36 403.205 150.277 402.837L150.405 402.786L150.42 402.78L250.89 362.576C251.836 362.197 252.698 361.636 253.427 360.924C254.155 360.213 254.737 359.365 255.138 358.428C255.539 357.492 255.751 356.486 255.764 355.467C255.776 354.449 255.587 353.438 255.209 352.492C254.83 351.547 254.269 350.685 253.557 349.956C252.846 349.227 251.998 348.646 251.061 348.245C250.125 347.844 249.119 347.631 248.1 347.619C247.082 347.607 246.071 347.796 245.125 348.174Z" fill="#1A3B34"/>
<path d="M147.394 287.03C145.336 287.03 143.363 287.848 141.908 289.302C140.453 290.757 139.636 292.73 139.636 294.788V310.303C139.636 312.36 140.453 314.334 141.908 315.788C143.363 317.243 145.336 318.061 147.394 318.061C149.451 318.061 151.424 317.243 152.879 315.788C154.334 314.334 155.151 312.36 155.151 310.303V294.788C155.151 292.73 154.334 290.757 152.879 289.302C151.424 287.848 149.451 287.03 147.394 287.03Z" fill="#1A3B34"/>
<path d="M380.121 147.395C345.157 147.434 311.635 161.34 286.912 186.064C262.188 210.788 248.281 244.309 248.242 279.273C248.242 391.296 369.682 505.141 374.848 509.932C376.282 511.262 378.166 512.001 380.121 512.001C382.077 512.001 383.96 511.262 385.394 509.932C390.561 505.141 512 391.296 512 279.273C511.961 244.309 498.054 210.788 473.331 186.064C448.607 161.34 415.086 147.434 380.121 147.395ZM380.121 493.425C356.742 470.167 263.757 371.819 263.757 279.273C263.757 248.412 276.017 218.814 297.84 196.992C319.662 175.169 349.26 162.91 380.121 162.91C410.983 162.91 440.58 175.169 462.403 196.992C484.225 218.814 496.485 248.412 496.485 279.273C496.485 371.736 403.5 470.148 380.121 493.425Z" fill="#1A3B34"/>
<path d="M465.054 245.789C464.6 244.422 463.774 243.209 462.669 242.286C461.563 241.363 460.222 240.767 458.796 240.565L408.516 233.38L387.061 190.47C386.345 189.269 385.329 188.273 384.112 187.582C382.896 186.891 381.521 186.527 380.122 186.527C378.723 186.527 377.347 186.891 376.131 187.582C374.914 188.273 373.898 189.269 373.182 190.47L351.728 233.38L301.447 240.565C300.022 240.77 298.681 241.367 297.576 242.29C296.471 243.213 295.644 244.426 295.189 245.792C294.734 247.158 294.668 248.624 294.998 250.026C295.329 251.427 296.043 252.709 297.061 253.728L333.107 289.773L325.895 340.235C325.695 341.637 325.882 343.067 326.437 344.369C326.991 345.672 327.891 346.798 329.04 347.626C330.188 348.454 331.542 348.952 332.953 349.066C334.364 349.18 335.78 348.906 337.046 348.273L380.122 326.735L423.197 348.273C424.464 348.906 425.88 349.18 427.291 349.066C428.702 348.952 430.055 348.454 431.204 347.627C432.352 346.799 433.253 345.672 433.807 344.37C434.361 343.067 434.549 341.637 434.349 340.235L427.137 289.773L463.182 253.728C464.201 252.709 464.915 251.426 465.246 250.024C465.576 248.622 465.51 247.155 465.054 245.789ZM413.425 281.546C412.574 282.398 411.932 283.437 411.551 284.579C411.169 285.722 411.059 286.937 411.228 288.13L416.895 327.774L383.591 311.122C382.514 310.584 381.326 310.304 380.122 310.304C378.917 310.304 377.729 310.584 376.652 311.122L343.349 327.774L349.015 288.13C349.184 286.937 349.074 285.722 348.693 284.579C348.311 283.437 347.67 282.398 346.818 281.546L319 253.728L357.947 248.163C359.189 247.986 360.368 247.51 361.385 246.778C362.403 246.045 363.227 245.076 363.788 243.955L380.122 211.285L396.455 243.955C397.016 245.076 397.841 246.045 398.858 246.778C399.875 247.511 401.055 247.986 402.296 248.164L441.243 253.728L413.425 281.546Z" fill="#1A3B34"/>
<path d="M302.546 116.364C301.527 116.364 300.518 116.564 299.577 116.954C298.636 117.344 297.78 117.915 297.06 118.636C296.339 119.356 295.768 120.212 295.378 121.153C294.989 122.094 294.788 123.103 294.788 124.122V131.879C294.788 133.937 295.606 135.91 297.06 137.365C298.515 138.82 300.488 139.637 302.546 139.637C304.603 139.637 306.577 138.82 308.031 137.365C309.486 135.91 310.304 133.937 310.304 131.879V124.122C310.304 123.103 310.103 122.094 309.714 121.153C309.324 120.212 308.752 119.356 308.032 118.636C307.312 117.915 306.456 117.344 305.515 116.954C304.574 116.564 303.565 116.364 302.546 116.364Z" fill="#1A3B34"/>
<path d="M155.151 178.423C155.151 176.365 154.334 174.392 152.879 172.937C151.424 171.482 149.451 170.665 147.394 170.665C145.336 170.665 143.363 171.482 141.908 172.937C140.453 174.392 139.636 176.365 139.636 178.423V201.695C139.636 203.753 140.453 205.726 141.908 207.181C143.363 208.636 145.336 209.453 147.394 209.453C149.451 209.453 151.424 208.636 152.879 207.181C154.334 205.726 155.151 203.753 155.151 201.695V178.423Z" fill="#1A3B34"/>
<path d="M155.151 224.969C155.151 222.912 154.334 220.939 152.879 219.484C151.424 218.029 149.451 217.212 147.394 217.212C145.336 217.212 143.363 218.029 141.908 219.484C140.453 220.939 139.636 222.912 139.636 224.969V232.727C139.636 234.784 140.453 236.758 141.908 238.213C143.363 239.667 145.336 240.485 147.394 240.485C149.451 240.485 151.424 239.667 152.879 238.213C154.334 236.758 155.151 234.784 155.151 232.727V224.969Z" fill="#1A3B34"/>
</svg>
