<svg width="40" height="40" viewBox="0 0 40 40" fill="none" xmlns="http://www.w3.org/2000/svg">
<path d="M31.3759 35.6476H27.9773V36.7458H31.3759V35.6476ZM12.0309 35.6476H8.59984V36.7263H12.0309V35.6476ZM6.89733 8.52432H33.0914C33.0979 8.41385 33.1174 8.31639 33.1174 8.21892C33.1174 6.8998 33.1174 5.57415 33.1174 4.25502C33.1174 3.54672 32.7925 3.23483 32.0777 3.23483C24.0265 3.23483 15.9687 3.23483 7.91753 3.23483C7.18974 3.23483 6.87783 3.54674 6.87133 4.28753C6.87133 5.60015 6.87133 6.90629 6.87133 8.21242C6.87133 8.30989 6.88433 8.40735 6.89733 8.52432ZM6.87133 9.75898V10.1358C6.87133 17.8557 6.87133 25.5755 6.87133 33.2888C6.87133 34.127 7.17024 34.4194 8.028 34.4194H31.9737C32.825 34.4194 33.1174 34.1271 33.1174 33.2693C33.1174 25.5625 33.1174 17.8557 33.1174 10.1489C33.1174 10.0189 33.1044 9.88894 33.0979 9.75248H6.87133V9.75898ZM13.246 35.6476C13.246 36.1675 13.246 36.6613 13.246 37.1617C13.246 37.7465 13.0381 37.9544 12.4597 37.9544C11.0237 37.9544 9.59405 37.9544 8.15796 37.9544C7.57962 37.9544 7.37818 37.7465 7.37818 37.1617C7.37818 36.6483 7.37818 36.1415 7.37818 35.6086C7.26122 35.5631 7.16375 35.5307 7.05978 35.4917C6.22802 35.1603 5.76015 34.5624 5.68867 33.6657C5.67567 33.5292 5.68216 33.3928 5.68216 33.2563C5.68216 23.6455 5.68216 14.0347 5.68216 4.41748C5.68216 3.85864 5.74715 3.3258 6.10455 2.86443C6.50744 2.35757 7.02729 2.08464 7.6771 2.04565C7.74858 2.04565 7.82655 2.04565 7.90453 2.04565C15.9687 2.04565 24.0395 2.04565 32.1037 2.04565C33.1954 2.04565 34.0076 2.6305 34.2546 3.59872C34.313 3.82616 34.3195 4.06658 34.3195 4.30052C34.3195 13.9893 34.3195 23.678 34.3195 33.3603C34.3195 34.5365 33.8582 35.1538 32.6235 35.6086C32.6235 36.1025 32.6235 36.6093 32.6235 37.1162C32.6235 37.7595 32.4351 37.948 31.8047 37.948C30.3817 37.948 28.9586 37.948 27.542 37.948C26.9636 37.948 26.7622 37.74 26.7557 37.1552C26.7557 36.6808 26.7557 36.2065 26.7492 35.7321C26.7492 35.7126 26.7362 35.6866 26.7167 35.6411H13.2525L13.246 35.6476Z" fill="#1A3B34"/>
<path d="M20.0171 13.307C15.3124 13.281 11.472 17.0954 11.4525 21.8196C11.433 26.5178 15.2344 30.3712 19.9131 30.3972C24.6632 30.4232 28.5036 26.6412 28.5361 21.9041C28.5686 17.1734 24.7607 13.333 20.0171 13.307ZM20.0041 12.1114C25.3975 12.1244 29.7448 16.4846 29.7318 21.8716C29.7188 27.2585 25.352 31.6058 19.9651 31.5928C14.5911 31.5798 10.2308 27.1936 10.2568 21.8131C10.2828 16.4391 14.6431 12.0984 20.0106 12.1114" fill="#1A3B34"/>
<path d="M21.7457 6.49038H14.0453C13.9349 6.49038 13.8179 6.49038 13.7074 6.49038C13.3175 6.47089 13.0641 6.24344 13.0576 5.91204C13.0511 5.58063 13.298 5.33372 13.6814 5.30123C13.7919 5.29473 13.9089 5.30123 14.0193 5.30123C19.1919 5.30123 24.3644 5.30123 29.5369 5.30123C29.6734 5.30123 29.8099 5.30122 29.9463 5.31422C30.2842 5.3597 30.4987 5.60664 30.4792 5.92505C30.4532 6.25645 30.2647 6.44489 29.9398 6.48388C29.8034 6.49687 29.6669 6.49689 29.5304 6.49689C26.9377 6.49689 24.3449 6.49689 21.7521 6.49689" fill="#1A3B34"/>
<path d="M10.5298 6.47724C10.3673 6.47724 10.2049 6.49673 10.0424 6.47724C9.71103 6.43175 9.52908 6.23034 9.52258 5.89893C9.52258 5.58702 9.68503 5.35958 9.99695 5.32709C10.3543 5.2881 10.7182 5.2881 11.0756 5.32709C11.3876 5.35958 11.55 5.59353 11.5435 5.90544C11.537 6.22385 11.3616 6.41878 11.0497 6.46427C10.8807 6.49026 10.6988 6.46427 10.5298 6.46427" fill="#1A3B34"/>
<path d="M12.7848 21.7806C12.8628 19.2463 13.9545 17.2059 16.1378 15.7698C16.5147 15.5228 16.8526 15.5618 17.0606 15.8607C17.275 16.1661 17.171 16.5106 16.7876 16.7705C16.7487 16.7965 16.7032 16.8225 16.6642 16.855C15.3386 17.7582 14.4873 18.9864 14.1299 20.5524C13.3826 23.808 15.54 27.1091 18.8606 27.7524C22.1486 28.3957 25.3912 26.1538 25.9176 22.8658C25.963 22.5603 25.9825 22.2484 26.002 21.9365C26.0345 21.4946 26.2685 21.2477 26.6389 21.2607C26.9963 21.2737 27.1977 21.5271 27.1977 21.956C27.2172 25.4 24.462 28.5452 21.0439 28.974C16.9306 29.4939 13.4151 26.8101 12.8433 22.7033C12.8043 22.4239 12.8043 22.1315 12.7848 21.7741" fill="#1A3B34"/>
<path d="M19.4063 15.8801C19.2568 15.8931 19.1073 15.9191 18.9579 15.9061C18.646 15.8866 18.4445 15.7177 18.4055 15.3993C18.3666 15.0874 18.4965 14.8274 18.8019 14.7689C19.2243 14.691 19.6662 14.665 20.0951 14.678C20.394 14.678 20.5564 14.9119 20.5824 15.2043C20.6019 15.5098 20.4525 15.7437 20.1471 15.8087C19.9066 15.8607 19.6532 15.8607 19.4063 15.8866C19.4063 15.8866 19.4063 15.8866 19.4063 15.8801Z" fill="#1A3B34"/>
</svg>
