<svg width="311" height="213" viewBox="0 0 311 213" fill="none" xmlns="http://www.w3.org/2000/svg">
<g clip-path="url(#clip0_249_2219)">
<path d="M63.2367 196.351C63.2367 205.551 118.698 213.01 187.118 213.01C255.539 213.01 311 205.551 311 196.351C311 187.151 255.539 179.691 187.118 179.691C118.698 179.691 63.2367 187.151 63.2367 196.351Z" fill="#070606"/>
<path d="M3.1243 66.3046L22.1758 149.8C22.7715 152.436 25.0811 154.291 27.7878 154.374C45.0835 154.978 63.4871 158.073 82.5595 164.741C88.8612 166.928 94.9748 169.804 100.712 173.294C103.158 174.805 105.551 176.42 107.871 178.16C111.633 180.973 115.186 184.078 118.447 187.443C123.578 192.746 128.061 198.747 131.656 205.259C132.075 205.999 133.026 207.468 133.412 208.228C150.802 209.593 170.115 209.645 191.215 209.645C215.564 209.645 238.274 208.624 257.43 206.853C256.029 197.559 253.741 186.891 250.052 175.618C234.658 128.598 194.841 71.1181 92.8324 59.1157C62.0763 55.5109 33.7028 56.0214 8.14062 59.1157C4.67101 59.5325 2.35097 62.9081 3.13477 66.3046" fill="#F3DAE3"/>
<path d="M94.8602 64.1063C101.82 78.109 118.844 83.8497 132.89 76.9109C146.936 69.972 152.694 53 145.734 38.9972C138.774 24.9945 121.75 19.2538 107.704 26.1926C93.6584 33.1211 87.9001 50.1036 94.8602 64.1063Z" fill="white"/>
<path d="M95.9682 59.6263C98.8839 65.5024 106.022 67.8987 111.916 64.9919C117.81 62.0851 120.214 54.9691 117.298 49.0929C114.382 43.2272 107.244 40.8205 101.35 43.7273C95.4561 46.6341 93.0524 53.7501 95.9682 59.6158" fill="#070606"/>
<path d="M45.4293 40.8622C52.3894 54.8649 69.4134 60.6056 83.4591 53.6668C97.5047 46.7279 103.253 29.7558 96.3029 15.7531C89.3428 1.75035 72.3187 -3.99036 58.2731 2.9485C44.2274 9.88736 38.4691 26.8594 45.4293 40.8622Z" fill="white"/>
<path d="M46.5365 36.3717C49.4522 42.2478 56.59 44.6441 62.4841 41.7373C68.3783 38.8305 70.7819 31.7145 67.8662 25.8384C64.9505 19.9727 57.8127 17.5659 51.9186 20.4727C46.0244 23.3796 43.6208 30.4955 46.5365 36.3613" fill="#070606"/>
<path d="M74.4289 93.7058C67.5106 108.011 54.9281 118.992 38.646 120.44C22.6774 121.857 10.3143 112.824 1.03419 100.759C-3.06245 95.4457 6.01915 90.2468 10.0635 95.4978C17.0968 104.635 26.6278 111.313 38.646 110.011C51.2599 108.646 60.1429 99.3007 65.3996 88.434C68.3153 82.3911 77.3342 87.6734 74.4184 93.6954" fill="#1D362F"/>
</g>
<defs>
<clipPath id="clip0_249_2219">
<rect width="311" height="213" fill="white" transform="matrix(-1 0 0 1 311 0)"/>
</clipPath>
</defs>
</svg>
